<svg width="25" height="27" viewBox="0 0 25 27" fill="none" xmlns="http://www.w3.org/2000/svg">
<g opacity="0.5">
<path d="M3.78227 5.87339C11.0327 4.05315 20.0466 4.16475 22.1299 6.53701C24.2131 8.90926 24.1702 16.8415 21.735 19.0181C19.3012 21.1946 8.73155 21.4015 5.38303 19.0181C1.8453 16.4985 3.89797 8.74789 3.78227 4.05315C3.85169 1.42605 1 1 1 1" stroke="#323232" stroke-width="2" stroke-linecap="round" stroke-linejoin="round"/>
<path d="M15.3008 11.712H19.0754" stroke="#323232" stroke-width="2" stroke-linecap="round" stroke-linejoin="round"/>
<path fill-rule="evenodd" clip-rule="evenodd" d="M5.91861 24.5177C6.32696 24.5177 6.65909 24.8498 6.65909 25.2582C6.65909 25.6679 6.32696 26 5.91861 26C5.50889 26 5.17676 25.6679 5.17676 25.2582C5.17676 24.8498 5.50889 24.5177 5.91861 24.5177Z" fill="black" stroke="#323232" stroke-width="2" stroke-linecap="round" stroke-linejoin="round"/>
<path fill-rule="evenodd" clip-rule="evenodd" d="M19.9827 24.5177C20.3924 24.5177 20.7245 24.8498 20.7245 25.2582C20.7245 25.6679 20.3924 26 19.9827 26C19.5743 26 19.2422 25.6679 19.2422 25.2582C19.2422 24.8498 19.5743 24.5177 19.9827 24.5177Z" fill="black" stroke="#323232" stroke-width="2" stroke-linecap="round" stroke-linejoin="round"/>
</g>
</svg>
