<svg width="52" height="51" viewBox="0 0 52 51" fill="none" xmlns="http://www.w3.org/2000/svg">
<rect x="0.645508" width="51" height="51" rx="25.5" fill="#F3F3F3"/>
<g clip-path="url(#clip0_70_2070)">
<path d="M26.1494 20.3449C23.2533 20.3449 20.9173 22.6443 20.9173 25.4952C20.9173 28.346 23.2533 30.6454 26.1494 30.6454C29.0454 30.6454 31.3814 28.346 31.3814 25.4952C31.3814 22.6443 29.0454 20.3449 26.1494 20.3449ZM26.1494 28.8435C24.2779 28.8435 22.7479 27.3419 22.7479 25.4952C22.7479 23.6484 24.2733 22.1468 26.1494 22.1468C28.0254 22.1468 29.5509 23.6484 29.5509 25.4952C29.5509 27.3419 28.0209 28.8435 26.1494 28.8435ZM32.8158 20.1342C32.8158 20.8021 32.2694 21.3355 31.5954 21.3355C30.917 21.3355 30.3751 20.7976 30.3751 20.1342C30.3751 19.4708 30.9215 18.9329 31.5954 18.9329C32.2694 18.9329 32.8158 19.4708 32.8158 20.1342ZM36.2811 21.3534C36.2036 19.7442 35.8303 18.3188 34.6327 17.1444C33.4396 15.97 31.9916 15.6025 30.3569 15.5218C28.672 15.4276 23.6221 15.4276 21.9373 15.5218C20.3071 15.598 18.8591 15.9655 17.6615 17.1399C16.4639 18.3143 16.0951 19.7397 16.0131 21.3489C15.9175 23.0074 15.9175 27.9784 16.0131 29.6369C16.0905 31.2461 16.4639 32.6715 17.6615 33.8459C18.8591 35.0203 20.3026 35.3878 21.9373 35.4685C23.6221 35.5627 28.672 35.5627 30.3569 35.4685C31.9916 35.3923 33.4396 35.0248 34.6327 33.8459C35.8257 32.6715 36.1991 31.2461 36.2811 29.6369C36.3767 27.9784 36.3767 23.0119 36.2811 21.3534ZM34.1044 31.4164C33.7493 32.295 33.0617 32.9718 32.1646 33.3259C30.8213 33.8504 27.6338 33.7294 26.1494 33.7294C24.6649 33.7294 21.4729 33.8459 20.1341 33.3259C19.2416 32.9763 18.554 32.2995 18.1943 31.4164C17.6615 30.0941 17.7845 26.9564 17.7845 25.4952C17.7845 24.0339 17.6661 20.8917 18.1943 19.5739C18.5495 18.6953 19.2371 18.0185 20.1341 17.6644C21.4774 17.1399 24.6649 17.2609 26.1494 17.2609C27.6338 17.2609 30.8259 17.1444 32.1646 17.6644C33.0571 18.014 33.7447 18.6908 34.1044 19.5739C34.6372 20.8962 34.5143 24.0339 34.5143 25.4952C34.5143 26.9564 34.6372 30.0986 34.1044 31.4164Z" fill="black"/>
</g>
<defs>
<clipPath id="clip0_70_2070">
<rect width="20.4" height="22.95" fill="white" transform="translate(15.9453 14.0249)"/>
</clipPath>
</defs>
</svg>
