<svg width="177" height="21" viewBox="0 0 177 21" fill="none" xmlns="http://www.w3.org/2000/svg">
<path d="M11.625 20C10.5083 18.0167 9.3 16.0583 8 14.125C6.7 12.1917 5.31667 10.3667 3.85 8.65V20H1.41561e-07V2.675H3.175C3.725 3.225 4.33333 3.9 5 4.7C5.66667 5.5 6.34167 6.35833 7.025 7.275C7.725 8.175 8.41667 9.11667 9.1 10.1C9.78333 11.0667 10.425 12 11.025 12.9V2.675H14.9V20H11.625ZM30.9465 13.4C30.9465 14.4333 30.7965 15.3833 30.4965 16.25C30.1965 17.1 29.7632 17.8333 29.1965 18.45C28.6298 19.05 27.9465 19.5167 27.1465 19.85C26.3632 20.1833 25.4798 20.35 24.4965 20.35C23.5298 20.35 22.6465 20.1833 21.8465 19.85C21.0632 19.5167 20.3882 19.05 19.8215 18.45C19.2548 17.8333 18.8132 17.1 18.4965 16.25C18.1798 15.3833 18.0215 14.4333 18.0215 13.4C18.0215 12.3667 18.1798 11.425 18.4965 10.575C18.8298 9.725 19.2798 9 19.8465 8.4C20.4298 7.8 21.1132 7.33333 21.8965 7C22.6965 6.66667 23.5632 6.5 24.4965 6.5C25.4465 6.5 26.3132 6.66667 27.0965 7C27.8965 7.33333 28.5798 7.8 29.1465 8.4C29.7132 9 30.1548 9.725 30.4715 10.575C30.7882 11.425 30.9465 12.3667 30.9465 13.4ZM27.1465 13.4C27.1465 12.25 26.9132 11.35 26.4465 10.7C25.9965 10.0333 25.3465 9.7 24.4965 9.7C23.6465 9.7 22.9882 10.0333 22.5215 10.7C22.0548 11.35 21.8215 12.25 21.8215 13.4C21.8215 14.55 22.0548 15.4667 22.5215 16.15C22.9882 16.8167 23.6465 17.15 24.4965 17.15C25.3465 17.15 25.9965 16.8167 26.4465 16.15C26.9132 15.4667 27.1465 14.55 27.1465 13.4ZM46.132 13.4C46.132 14.4333 45.982 15.3833 45.682 16.25C45.382 17.1 44.9487 17.8333 44.382 18.45C43.8154 19.05 43.132 19.5167 42.332 19.85C41.5487 20.1833 40.6654 20.35 39.682 20.35C38.7154 20.35 37.832 20.1833 37.032 19.85C36.2487 19.5167 35.5737 19.05 35.007 18.45C34.4404 17.8333 33.9987 17.1 33.682 16.25C33.3654 15.3833 33.207 14.4333 33.207 13.4C33.207 12.3667 33.3654 11.425 33.682 10.575C34.0154 9.725 34.4654 9 35.032 8.4C35.6154 7.8 36.2987 7.33333 37.082 7C37.882 6.66667 38.7487 6.5 39.682 6.5C40.632 6.5 41.4987 6.66667 42.282 7C43.082 7.33333 43.7654 7.8 44.332 8.4C44.8987 9 45.3404 9.725 45.657 10.575C45.9737 11.425 46.132 12.3667 46.132 13.4ZM42.332 13.4C42.332 12.25 42.0987 11.35 41.632 10.7C41.182 10.0333 40.532 9.7 39.682 9.7C38.832 9.7 38.1737 10.0333 37.707 10.7C37.2404 11.35 37.007 12.25 37.007 13.4C37.007 14.55 37.2404 15.4667 37.707 16.15C38.1737 16.8167 38.832 17.15 39.682 17.15C40.532 17.15 41.182 16.8167 41.632 16.15C42.0987 15.4667 42.332 14.55 42.332 13.4ZM56.9426 10.15C56.6092 10.0667 56.2176 9.98333 55.7676 9.9C55.3176 9.8 54.8342 9.75 54.3176 9.75C54.0842 9.75 53.8009 9.775 53.4676 9.825C53.1509 9.85833 52.9092 9.9 52.7426 9.95V20H49.0176V7.55C49.6842 7.31667 50.4676 7.1 51.3676 6.9C52.2842 6.68333 53.3009 6.575 54.4176 6.575C54.6176 6.575 54.8592 6.59167 55.1426 6.625C55.4259 6.64167 55.7092 6.675 55.9926 6.725C56.2759 6.75833 56.5592 6.80833 56.8426 6.875C57.1259 6.925 57.3676 6.99167 57.5676 7.075L56.9426 10.15ZM69.2953 11.6C69.662 11.2 70.037 10.7833 70.4203 10.35C70.8203 9.91667 71.2036 9.49167 71.5703 9.075C71.937 8.64167 72.2786 8.23333 72.5953 7.85C72.9286 7.46667 73.212 7.13333 73.4453 6.85H77.8703C76.987 7.86667 76.1203 8.84167 75.2703 9.775C74.437 10.6917 73.5203 11.6417 72.5203 12.625C73.0203 13.075 73.537 13.6167 74.0703 14.25C74.6036 14.8667 75.1203 15.5083 75.6203 16.175C76.1203 16.8417 76.5786 17.5083 76.9953 18.175C77.412 18.8417 77.762 19.45 78.0453 20H73.7703C73.5036 19.5667 73.1953 19.0917 72.8453 18.575C72.512 18.0417 72.1536 17.5167 71.7703 17C71.387 16.4667 70.9786 15.9583 70.5453 15.475C70.1286 14.9917 69.712 14.5833 69.2953 14.25V20H65.5703V1.2L69.2953 0.599999V11.6ZM83.7729 20H80.0479V6.85H83.7729V20ZM84.1229 3.05C84.1229 3.73333 83.8979 4.275 83.4479 4.675C83.0145 5.05833 82.4979 5.25 81.8979 5.25C81.2979 5.25 80.7729 5.05833 80.3229 4.675C79.8895 4.275 79.6729 3.73333 79.6729 3.05C79.6729 2.36667 79.8895 1.83333 80.3229 1.45C80.7729 1.05 81.2979 0.849999 81.8979 0.849999C82.4979 0.849999 83.0145 1.05 83.4479 1.45C83.8979 1.83333 84.1229 2.36667 84.1229 3.05ZM90.4494 13.325C90.4494 14.475 90.7077 15.4 91.2244 16.1C91.7411 16.8 92.5077 17.15 93.5244 17.15C93.8577 17.15 94.1661 17.1417 94.4494 17.125C94.7327 17.0917 94.9661 17.0583 95.1494 17.025V10.25C94.9161 10.1 94.6077 9.975 94.2244 9.875C93.8577 9.775 93.4827 9.725 93.0994 9.725C91.3327 9.725 90.4494 10.925 90.4494 13.325ZM98.8744 19.575C98.5411 19.675 98.1577 19.775 97.7244 19.875C97.2911 19.9583 96.8327 20.0333 96.3494 20.1C95.8827 20.1667 95.3994 20.2167 94.8994 20.25C94.4161 20.3 93.9494 20.325 93.4994 20.325C92.4161 20.325 91.4494 20.1667 90.5994 19.85C89.7494 19.5333 89.0327 19.0833 88.4494 18.5C87.8661 17.9 87.4161 17.1833 87.0994 16.35C86.7994 15.5 86.6494 14.55 86.6494 13.5C86.6494 12.4333 86.7827 11.475 87.0494 10.625C87.3161 9.75833 87.6994 9.025 88.1994 8.425C88.6994 7.825 89.3077 7.36667 90.0244 7.05C90.7577 6.73333 91.5911 6.575 92.5244 6.575C93.0411 6.575 93.4994 6.625 93.8994 6.725C94.3161 6.825 94.7327 6.96667 95.1494 7.15V1.2L98.8744 0.599999V19.575Z" fill="#FFD166"/>
<path d="M105.929 0.825C105.962 1.05833 105.987 1.3 106.004 1.55C106.021 1.8 106.029 1.98333 106.029 2.1C106.029 3.21667 105.829 4.28333 105.429 5.3C105.029 6.3 104.537 7.15 103.954 7.85L101.329 7.25C101.646 6.53333 101.896 5.725 102.079 4.825C102.279 3.925 102.379 3.06667 102.379 2.25C102.379 2.21667 102.379 2.15 102.379 2.05C102.379 1.93333 102.371 1.80833 102.354 1.675C102.354 1.525 102.346 1.375 102.329 1.225C102.329 1.075 102.321 0.941666 102.304 0.825H105.929ZM117.828 9.35C117.528 9.68333 117.12 10.1333 116.603 10.7C116.103 11.2667 115.561 11.8917 114.978 12.575C114.395 13.2583 113.803 13.975 113.203 14.725C112.62 15.475 112.086 16.2 111.603 16.9H117.953V20H107.078V17.8C107.428 17.2 107.845 16.5583 108.328 15.875C108.828 15.175 109.345 14.475 109.878 13.775C110.428 13.075 110.97 12.4 111.503 11.75C112.036 11.0833 112.528 10.4833 112.978 9.95H107.378V6.85H117.828V9.35ZM131.309 2.675C131.609 3.225 131.951 3.90833 132.334 4.725C132.734 5.525 133.142 6.4 133.559 7.35C133.992 8.28333 134.417 9.24167 134.834 10.225C135.251 11.2083 135.642 12.1333 136.009 13C136.376 12.1333 136.767 11.2083 137.184 10.225C137.601 9.24167 138.017 8.28333 138.434 7.35C138.867 6.4 139.276 5.525 139.659 4.725C140.059 3.90833 140.409 3.225 140.709 2.675H144.259C144.426 3.825 144.576 5.11667 144.709 6.55C144.859 7.96667 144.984 9.45 145.084 11C145.201 12.5333 145.301 14.075 145.384 15.625C145.484 17.175 145.567 18.6333 145.634 20H141.834C141.784 18.3167 141.717 16.4833 141.634 14.5C141.551 12.5167 141.426 10.5167 141.259 8.5C140.959 9.2 140.626 9.975 140.259 10.825C139.892 11.675 139.526 12.525 139.159 13.375C138.809 14.225 138.467 15.0417 138.134 15.825C137.801 16.5917 137.517 17.25 137.284 17.8H134.559C134.326 17.25 134.042 16.5917 133.709 15.825C133.376 15.0417 133.026 14.225 132.659 13.375C132.309 12.525 131.951 11.675 131.584 10.825C131.217 9.975 130.884 9.2 130.584 8.5C130.417 10.5167 130.292 12.5167 130.209 14.5C130.126 16.4833 130.059 18.3167 130.009 20H126.209C126.276 18.6333 126.351 17.175 126.434 15.625C126.534 14.075 126.634 12.5333 126.734 11C126.851 9.45 126.976 7.96667 127.109 6.55C127.259 5.11667 127.417 3.825 127.584 2.675H131.309ZM153.921 17.4C154.287 17.4 154.637 17.3917 154.971 17.375C155.304 17.3583 155.571 17.3333 155.771 17.3V14.475C155.621 14.4417 155.396 14.4083 155.096 14.375C154.796 14.3417 154.521 14.325 154.271 14.325C153.921 14.325 153.587 14.35 153.271 14.4C152.971 14.4333 152.704 14.5083 152.471 14.625C152.237 14.7417 152.054 14.9 151.921 15.1C151.787 15.3 151.721 15.55 151.721 15.85C151.721 16.4333 151.912 16.8417 152.296 17.075C152.696 17.2917 153.237 17.4 153.921 17.4ZM153.621 6.5C154.721 6.5 155.637 6.625 156.371 6.875C157.104 7.125 157.687 7.48333 158.121 7.95C158.571 8.41667 158.887 8.98333 159.071 9.65C159.254 10.3167 159.346 11.0583 159.346 11.875V19.625C158.812 19.7417 158.071 19.875 157.121 20.025C156.171 20.1917 155.021 20.275 153.671 20.275C152.821 20.275 152.046 20.2 151.346 20.05C150.662 19.9 150.071 19.6583 149.571 19.325C149.071 18.975 148.687 18.525 148.421 17.975C148.154 17.425 148.021 16.75 148.021 15.95C148.021 15.1833 148.171 14.5333 148.471 14C148.787 13.4667 149.204 13.0417 149.721 12.725C150.237 12.4083 150.829 12.1833 151.496 12.05C152.162 11.9 152.854 11.825 153.571 11.825C154.054 11.825 154.479 11.85 154.846 11.9C155.229 11.9333 155.537 11.9833 155.771 12.05V11.7C155.771 11.0667 155.579 10.5583 155.196 10.175C154.812 9.79167 154.146 9.6 153.196 9.6C152.562 9.6 151.937 9.65 151.321 9.75C150.704 9.83333 150.171 9.95833 149.721 10.125L149.246 7.125C149.462 7.05833 149.729 6.99167 150.046 6.925C150.379 6.84167 150.737 6.775 151.121 6.725C151.504 6.65833 151.904 6.60833 152.321 6.575C152.754 6.525 153.187 6.5 153.621 6.5ZM167.964 20.25C166.881 20.2333 165.997 20.1167 165.314 19.9C164.647 19.6833 164.114 19.3833 163.714 19C163.331 18.6 163.064 18.125 162.914 17.575C162.781 17.0083 162.714 16.375 162.714 15.675V1.2L166.439 0.599999V14.925C166.439 15.2583 166.464 15.5583 166.514 15.825C166.564 16.0917 166.656 16.3167 166.789 16.5C166.939 16.6833 167.147 16.8333 167.414 16.95C167.681 17.0667 168.039 17.1417 168.489 17.175L167.964 20.25ZM175.874 20.25C174.791 20.2333 173.907 20.1167 173.224 19.9C172.557 19.6833 172.024 19.3833 171.624 19C171.241 18.6 170.974 18.125 170.824 17.575C170.691 17.0083 170.624 16.375 170.624 15.675V1.2L174.349 0.599999V14.925C174.349 15.2583 174.374 15.5583 174.424 15.825C174.474 16.0917 174.566 16.3167 174.699 16.5C174.849 16.6833 175.057 16.8333 175.324 16.95C175.591 17.0667 175.949 17.1417 176.399 17.175L175.874 20.25Z" fill="#3F8CB9"/>
</svg>
