<svg width="48" height="48" viewBox="0 0 48 48" fill="none" xmlns="http://www.w3.org/2000/svg">
<circle cx="23.6462" cy="23.6462" r="22.6462" transform="matrix(-1 0 0 1 47.292 0)" stroke="#323232" stroke-width="2"/>
<path d="M12.2686 23.6461L11.5614 22.939L10.8543 23.6461L11.5614 24.3532L12.2686 23.6461ZM35.0224 24.6461C35.5747 24.6461 36.0224 24.1984 36.0224 23.6461C36.0224 23.0939 35.5747 22.6461 35.0224 22.6461V24.6461ZM19.1461 15.3544L11.5614 22.939L12.9757 24.3532L20.5603 16.7686L19.1461 15.3544ZM11.5614 24.3532L19.1461 31.9379L20.5603 30.5236L12.9757 22.939L11.5614 24.3532ZM12.2686 24.6461H35.0224V22.6461H12.2686V24.6461Z" fill="#323232"/>
</svg>
